<mxfile host="app.diagrams.net" modified="2021-11-17T23:37:15.712Z" agent="5.0 (Windows)" etag="u5bEMznDl4Yon5jLA3ok" version="15.8.2" type="github">
  <diagram id="C5RBs43oDa-KdzZeNtuy" name="Page-1">
    <mxGraphModel dx="2062" dy="1108" grid="1" gridSize="10" guides="1" tooltips="1" connect="1" arrows="1" fold="1" page="1" pageScale="1" pageWidth="827" pageHeight="1169" math="0" shadow="0">
      <root>
        <mxCell id="WIyWlLk6GJQsqaUBKTNV-0" />
        <mxCell id="WIyWlLk6GJQsqaUBKTNV-1" parent="WIyWlLk6GJQsqaUBKTNV-0" />
        <mxCell id="xq_MhEwUFLvRWpzU6Ag--3" style="edgeStyle=orthogonalEdgeStyle;rounded=0;orthogonalLoop=1;jettySize=auto;html=1;exitX=0.5;exitY=1;exitDx=0;exitDy=0;fontSize=16;" edge="1" parent="WIyWlLk6GJQsqaUBKTNV-1" source="xq_MhEwUFLvRWpzU6Ag--0" target="xq_MhEwUFLvRWpzU6Ag--4">
          <mxGeometry relative="1" as="geometry">
            <mxPoint x="414" y="240" as="targetPoint" />
          </mxGeometry>
        </mxCell>
        <mxCell id="xq_MhEwUFLvRWpzU6Ag--0" value="" style="ellipse;whiteSpace=wrap;html=1;" vertex="1" parent="WIyWlLk6GJQsqaUBKTNV-1">
          <mxGeometry x="319" y="20" width="189" height="140" as="geometry" />
        </mxCell>
        <mxCell id="xq_MhEwUFLvRWpzU6Ag--1" value="&lt;div style=&quot;font-size: 16px;&quot;&gt;Java application features &lt;br style=&quot;font-size: 16px;&quot;&gt;&lt;/div&gt;" style="text;html=1;resizable=0;autosize=1;align=center;verticalAlign=middle;points=[];fillColor=none;strokeColor=none;rounded=0;fontSize=16;" vertex="1" parent="WIyWlLk6GJQsqaUBKTNV-1">
          <mxGeometry x="318" y="80" width="190" height="20" as="geometry" />
        </mxCell>
        <mxCell id="xq_MhEwUFLvRWpzU6Ag--4" value="" style="rhombus;whiteSpace=wrap;html=1;fontSize=16;" vertex="1" parent="WIyWlLk6GJQsqaUBKTNV-1">
          <mxGeometry x="374" y="200" width="80" height="80" as="geometry" />
        </mxCell>
        <mxCell id="xq_MhEwUFLvRWpzU6Ag--5" value="Start" style="text;html=1;resizable=0;autosize=1;align=center;verticalAlign=middle;points=[];fillColor=none;strokeColor=none;rounded=0;fontSize=16;" vertex="1" parent="WIyWlLk6GJQsqaUBKTNV-1">
          <mxGeometry x="389" y="230" width="50" height="20" as="geometry" />
        </mxCell>
      </root>
    </mxGraphModel>
  </diagram>
</mxfile>
